<svg width="777" height="1024" viewBox="0 0 777 1024" fill="none" xmlns="http://www.w3.org/2000/svg">
<g opacity="0.15" clip-path="url(#clip0_497_1152)">
<mask id="mask0_497_1152" style="mask-type:luminance" maskUnits="userSpaceOnUse" x="-1" y="-1" width="778" height="1167">
<path d="M-0.130981 -0.0314941L-0.130981 1165.97L776.869 1165.97L776.869 -0.0314941L-0.130981 -0.0314941Z" fill="white"/>
</mask>
<g mask="url(#mask0_497_1152)">
<path d="M-15.4934 611.253C-21.2478 628.581 -8.2393 641.749 -0.515924 655.465C6.73349 668.339 9.71251 681.829 25.4048 687.592C31.784 689.935 38.8702 690.477 44.7101 693.954C49.0194 696.519 52.2906 700.479 55.47 704.359C63.2882 713.9 71.1064 723.441 78.9261 732.982C84.0139 739.19 89.2742 745.545 96.2921 749.438C103.31 753.331 112.59 754.237 119.088 749.525C130.416 741.309 126.522 723.673 131.13 710.455C137.139 693.218 157.428 684.767 165.315 668.305C174.115 669.421 185.167 669.452 189.325 661.612C193.015 654.655 188.57 646.431 185.548 639.158C182.04 630.718 180.486 620.971 183.844 612.47C187.203 603.97 196.525 597.48 205.425 599.551C212.544 601.208 219.215 607.786 226.042 605.174C229.033 604.03 231.119 601.322 233.812 599.582C249.759 589.289 272.949 613.576 281.495 590.141C287.894 572.59 282.118 551.305 297.908 536.788C313.257 522.676 339.785 529.656 354.377 541.598C369.153 553.688 360.562 575.827 377.773 586.686C380.747 588.563 384.13 589.716 387.105 591.591C397.544 598.168 400.794 611.839 409.011 621.043C420.526 633.942 439.961 636.331 453.453 647.143C462.18 654.135 467.821 664.155 474.641 673.017C481.46 681.879 490.57 690.187 501.71 691.109C510.8 691.861 519.275 687.223 528.226 687.516C538.355 687.847 545.883 691.451 556.618 690.058C559.962 689.624 563.466 688.913 565.989 686.673C569.216 683.806 570.062 679.192 571.869 675.27C579.401 658.929 603.311 655.135 610.281 638.547C614.02 629.646 612.225 618.213 619.005 611.345C624.692 605.585 634.472 605.812 641.546 609.744C648.619 613.677 653.574 620.475 658.119 627.176C683.693 664.877 703.758 706.312 717.48 749.757C718.371 752.577 719.23 755.665 718.167 758.424C716.235 763.441 709.642 764.215 704.916 766.777C696.874 771.135 694.024 781.478 694.602 790.609C695.18 799.739 698.34 808.559 698.921 817.689C700.93 849.325 673.314 873.594 653.384 898.238C636.877 918.648 624.508 942.392 617.238 967.618C615.74 972.814 614.189 978.486 609.853 981.716C603.844 986.197 595.449 984.048 587.97 984.518C575.459 985.304 564.009 994.921 561.069 1007.11C559.546 1013.43 560.136 1020.04 559.805 1026.53C558.393 1054.17 540.814 1084.13 555.858 1107.36C559.71 1113.31 565.597 1118.39 566.725 1125.38C567.581 1130.7 565.465 1135.99 563.39 1140.96C553.964 1163.52 544.537 1186.09 535.112 1208.65" stroke="#001AFF" stroke-width="5.57788" stroke-miterlimit="10"/>
<path d="M437.965 -26.5411C439.038 -10.8717 428.335 2.82183 422.797 17.5197C416.186 35.0578 416.951 54.3575 415.229 73.0213C410.96 119.324 390.985 163.742 391.903 210.233C392.634 247.233 406.668 282.808 424.693 315.125C433.473 330.867 443.494 346.347 457.522 357.664C479.044 375.026 509.403 380.772 535.776 372.473C562.15 364.175 583.754 342.078 591.466 315.517C599.174 288.968 593.485 260.589 594.635 232.967C595.785 205.345 607.735 174.071 634.242 166.258C639.171 164.804 644.433 164.235 648.95 161.785C656.245 157.828 660.208 149.803 663.555 142.207C670.212 127.099 676.349 110.686 673.396 94.4415C670.63 79.2244 660.333 66.6145 654.026 52.4935C641.727 24.9634 645.863 -9.20345 664.375 -33.0007" stroke="#001AFF" stroke-width="5.57788" stroke-miterlimit="10"/>
<path d="M-19.0443 232.732C-4.47401 246.475 9.68138 261.094 27.1437 270.897C44.606 280.703 66.4101 285.113 84.7551 277.08C103.095 269.049 118.345 249.171 138.065 252.622C144.43 253.736 150.177 257.31 156.559 258.311C167.768 260.069 178.969 253.379 185.725 244.258C192.478 235.137 195.636 223.914 198.499 212.93C202.969 195.77 207.066 177.854 203.655 160.451C200.244 143.049 187.285 126.278 169.695 124.089C161.47 123.066 153.17 125.247 144.887 124.956C136.604 124.666 127.321 120.696 125.245 112.67C123.523 106.013 127.279 98.4259 124.143 92.3068C119.569 83.383 106.107 86.0415 97.0364 81.7724C85.2804 76.2378 83.3519 59.7179 87.8445 47.5215C92.3371 35.3251 101.26 25.1856 106.009 13.0872C111.978 -2.11743 110.69 -19.9946 102.601 -34.184" stroke="#001AFF" stroke-width="5.57788" stroke-miterlimit="10"/>
<path d="M462.419 -14.9278C450.766 11.5948 447.036 40.807 443.432 69.5528C440.651 91.7363 437.869 113.92 435.087 136.102C431.749 162.724 428.407 189.617 431.089 216.313C433.804 243.332 442.769 269.701 457.083 292.772C465.726 306.703 476.713 319.778 491.319 327.219C505.923 334.659 524.682 335.486 538.099 326.07C546.052 320.488 551.468 311.925 555.263 302.978C564.716 280.697 565.109 255.813 568.225 231.81C571.342 207.806 578.332 182.487 596.922 166.995C607.382 158.278 620.812 153.337 630.175 143.451C650.085 122.43 644.375 88.5695 635.343 61.0566C626.31 33.5436 615.382 2.75808 628.343 -23.1365" stroke="#001AFF" stroke-width="1.85929" stroke-miterlimit="10"/>
<path d="M506.517 101.5C506.756 108.009 507.788 114.755 511.468 120.129C515.146 125.504 522.062 129.097 528.293 127.205C534.648 125.277 538.31 118.514 539.616 112C540.921 105.488 540.562 98.6921 542.254 92.2683C545.476 80.0455 555.906 69.8764 555.886 57.2354C555.852 35.2073 528.396 30.2759 516.52 46.5719C507.586 58.832 506 87.3897 506.517 101.5Z" stroke="#001AFF" stroke-width="1.85929" stroke-miterlimit="10"/>
<path d="M482.776 70.041C476.085 92.6117 474.394 113.362 479.546 136.453C484.708 159.59 508.195 182.93 532.794 168.79C549.968 158.918 554.543 139.263 560.689 121.944C565.575 108.177 574.893 98.3406 580.977 85.5069C589.891 66.7032 586.868 43.506 577.272 25.5698C569.327 10.7181 549.456 -7.97056 531 -2.49969C513.853 2.58252 501.347 24.1395 494.228 39.142C489.513 49.0795 485.898 59.5082 482.776 70.041Z" stroke="#001AFF" stroke-width="1.85929" stroke-miterlimit="10"/>
<path d="M497.494 -19.34C482.02 14.5751 467.367 49.1214 458.919 85.4322C450.472 121.743 448.441 160.153 458.181 196.138C461.953 210.071 467.673 223.875 477.641 234.313C487.608 244.751 502.442 251.332 516.61 248.594C530.699 245.872 541.804 234.601 548.693 222.008C555.581 209.415 559.098 195.31 563.995 181.815C568.891 168.321 575.62 154.839 587.059 146.17C591.295 142.96 596.083 140.488 600.074 136.977C610.73 127.599 614.082 112.109 612.769 97.9706C611.457 83.8324 606.201 70.4156 602.245 56.7796C594.362 29.6071 591.575 0.965511 594.071 -27.2175" stroke="#001AFF" stroke-width="1.85929" stroke-miterlimit="10"/>
<path d="M-9.50427 222.672C-0.133653 236.443 12.4351 248.493 27.885 254.711C43.3333 260.929 61.8616 260.657 75.8663 251.645C83.9144 246.466 90.1786 238.729 98.6153 234.211C109.332 228.471 122.149 228.626 134.27 229.539C141.327 230.071 148.817 230.73 155.117 227.507C161.17 224.41 165.01 218.264 167.97 212.144C172.222 203.352 175.333 193.639 174.283 183.93C173.041 172.456 165.624 161.839 155.282 156.729C147.478 152.874 138.569 152.115 130.13 149.974C121.694 147.835 112.957 143.641 109.262 135.757C107.022 130.979 106.928 125.42 104.724 120.627C97.4964 104.898 73.2991 105.758 62.5578 92.1857C55.3131 83.0318 56.2967 69.7099 60.4009 58.7806C64.505 47.8513 71.2726 38.0351 74.9432 26.9534C80.9494 8.8182 77.8041 -12.0998 66.7287 -27.6636" stroke="#001AFF" stroke-width="1.85929" stroke-miterlimit="10"/>
<path d="M-9.47166 186.137C-4.8625 194.966 1.05358 203.109 8.02171 210.222C18.2144 220.624 32.7412 229.18 46.7893 225.352C57.9875 222.3 66.104 212.082 77.2462 208.831C83.1965 207.094 89.5508 207.492 95.6564 206.426C101.762 205.361 108.196 202.189 110.194 196.32C110.999 193.957 110.99 191.361 110.418 188.931C107.621 177.052 93.658 172.147 85.3627 163.198C78.334 155.618 75.4855 145.092 69.63 136.571C60.8593 123.806 45.6953 116.409 30.3356 114.455C14.9759 112.502 -0.627852 115.468 -15.4188 120.048" stroke="#001AFF" stroke-width="1.85929" stroke-miterlimit="10"/>
<path d="M-10.0623 92.9039C12.5189 92.9754 34.5282 78.814 43.832 58.2302C49.1964 46.3619 50.4816 33.1037 51.3611 20.1082C52.3137 6.04472 52.6696 -8.93921 45.5865 -21.1247" stroke="#001AFF" stroke-width="1.85929" stroke-miterlimit="10"/>
<path d="M-12.2424 59.6062C-3.15619 60.1208 4.84535 53.3829 9.83369 45.7681C16.7552 35.2026 19.8197 22.4279 20.0901 9.79778C20.3605 -2.83233 17.9642 -15.3831 14.6697 -27.5795" stroke="#001AFF" stroke-width="1.85929" stroke-miterlimit="10"/>
<path d="M-9.01313 164.118C-0.755171 164.002 5.54009 171.082 12.7708 175.073C17.4966 177.681 22.8159 179.007 28.1244 179.987C35.4188 181.333 44.3201 181.465 48.6807 175.463C51.6177 171.419 51.3287 165.664 49.0148 161.233C46.7009 156.804 42.6853 153.505 38.4709 150.821C21.8711 140.251 0.390128 137.742 -18.1973 144.202" stroke="#001AFF" stroke-width="1.85929" stroke-miterlimit="10"/>
<path d="M166.419 1187.17C174.99 1181.32 181.47 1172.91 187.238 1164.28C206.222 1135.88 219.198 1103.02 221.496 1068.93C223.795 1034.85 214.903 999.585 194.135 972.469C184.348 959.69 172.076 948.776 163.837 934.947C150.758 912.995 149.255 886.361 144.587 861.236C139.919 836.109 129.838 809.232 107.207 797.379C97.254 792.165 85.529 790.288 76.6666 783.381C64.0838 773.573 60.2252 756.058 49.2447 744.482C38.979 733.658 23.7777 729.269 11.4219 720.911C-3.00546 711.153 -13.4328 695.65 -17.0319 678.603" stroke="#001AFF" stroke-width="1.85929" stroke-miterlimit="10"/>
<path d="M147.201 1187.32C154.628 1182.19 160.293 1174.91 165.35 1167.43C181.986 1142.82 193.414 1114.31 195.701 1084.72C197.989 1055.12 190.525 1024.6 173.26 1000.63C170.45 996.725 167.442 992.944 164.242 989.28C157.91 982.027 151.131 975.351 145.858 967.547C143.76 964.427 141.936 961.19 140.348 957.829C133.631 943.676 131.181 927.276 128.581 911.218C128.105 908.281 127.622 905.356 127.102 902.447C124.789 889.557 121.125 876.178 114.674 864.947C109.816 856.5 103.37 849.294 94.8949 844.459C86.2127 839.498 75.9485 837.384 67.9936 831.17C56.7007 822.346 52.5297 807.284 42.3681 797.434C38.2998 793.488 33.4684 790.567 28.3899 787.995C21.6253 784.566 14.4055 781.739 7.96569 777.825C-5.22932 769.832 -15.077 757.014 -19.0304 742.178" stroke="#001AFF" stroke-width="1.85929" stroke-miterlimit="10"/>
<path d="M127.981 1187.46C134.264 1183.06 139.117 1176.91 143.459 1170.58C157.746 1149.76 167.625 1125.61 169.902 1100.5C172.178 1075.39 166.167 1049.58 152.379 1028.79C150.046 1025.27 147.596 1021.79 144.795 1018.52C139.251 1012.02 132.931 1006.58 127.871 1000.15C125.858 997.589 124.08 994.915 122.514 992.1C115.851 980.23 113.206 965.67 110.89 951.44C110.467 948.838 110.048 946.242 109.607 943.661C107.645 932.209 104.736 920.347 99.3393 910.24C95.2802 902.661 89.7977 896.116 82.5732 891.542C75.1637 886.835 66.3587 884.484 59.3129 878.962C49.3098 871.122 44.8249 858.513 35.4854 850.389C31.7496 847.135 27.3922 844.75 22.8327 842.701C16.7706 839.968 10.323 837.796 4.50173 834.742C-7.46096 828.514 -16.7306 818.381 -21.0352 805.757" stroke="#001AFF" stroke-width="1.85929" stroke-miterlimit="10"/>
<path d="M108.763 1187.61C113.902 1183.93 117.942 1178.91 121.569 1173.73C133.509 1156.7 141.838 1136.91 144.106 1116.29C146.373 1095.67 141.857 1074.52 131.503 1056.95C129.652 1053.81 127.754 1050.64 125.355 1047.76C120.598 1042.02 114.747 1037.81 109.89 1032.75C107.967 1030.75 106.238 1028.64 104.685 1026.37C98.1025 1016.76 95.2338 1004.06 93.2043 991.664C92.8329 989.396 92.4801 987.131 92.1165 984.877C90.5065 974.861 88.3527 964.518 84.0092 955.535C80.749 948.822 76.2284 942.941 70.2548 938.627C64.118 934.173 56.7723 931.584 50.6355 926.755C41.9238 919.899 37.1251 909.746 28.6045 903.345C25.1997 900.783 21.3147 898.935 17.2774 897.406C11.9176 895.368 6.24708 893.84 1.04118 891.66C-9.67987 887.174 -18.3807 879.75 -23.0365 869.337" stroke="#001AFF" stroke-width="1.85929" stroke-miterlimit="10"/>
<path d="M89.5429 1187.76C93.5367 1184.8 96.7644 1180.91 99.6797 1176.89C109.271 1163.64 116.051 1148.21 118.309 1132.07C120.565 1115.94 117.621 1099.38 110.624 1085.11C109.265 1082.33 107.911 1079.49 105.913 1076.99C101.944 1072.02 96.5686 1069.04 91.9066 1065.35C90.0759 1063.9 88.3867 1062.36 86.8561 1060.64C80.3246 1053.31 77.2632 1042.46 75.5181 1031.89C75.1995 1029.95 74.9105 1028.02 74.6261 1026.09C73.3658 1017.51 71.9672 1008.68 68.6805 1000.83C66.2189 994.983 62.6618 989.764 57.9377 985.71C53.0721 981.509 47.1871 978.683 41.9594 974.547C34.5375 968.675 29.4264 960.975 21.7248 956.3C18.651 954.43 15.2415 953.118 11.7233 952.112C7.06592 950.77 2.16615 949.894 -2.41815 948.578C-11.91 945.854 -20.0281 941.117 -25.0366 932.917" stroke="#001AFF" stroke-width="1.85929" stroke-miterlimit="10"/>
<path d="M70.3246 1187.91C73.1747 1185.67 75.588 1182.91 77.79 1180.04C85.0348 1170.58 90.264 1159.51 92.5111 1147.86C94.7581 1136.21 93.5321 1124.15 89.7465 1113.27C88.9027 1110.84 88.0682 1108.34 86.4707 1106.23C83.2896 1102.02 78.3945 1100.26 73.9252 1097.96C72.1894 1097.06 70.5344 1096.09 69.0286 1094.92C62.5406 1089.87 59.2943 1080.85 57.8336 1072.11C57.5663 1070.51 57.3425 1068.91 57.1374 1067.3C56.2267 1060.16 55.5849 1052.85 53.3518 1046.12C51.689 1041.14 49.0939 1036.59 45.6222 1032.79C42.0294 1028.85 37.6036 1025.78 33.285 1022.34C27.1529 1017.45 21.7295 1012.2 14.8484 1009.26C12.1056 1008.08 9.17006 1007.3 6.17084 1006.82C2.21591 1006.17 -1.91463 1005.95 -5.87577 1005.5C-14.1399 1004.54 -21.6753 1002.48 -27.035 996.496" stroke="#001AFF" stroke-width="1.85929" stroke-miterlimit="10"/>
<path d="M476.944 1215.81C495.983 1200.88 516.519 1183.4 519.362 1159.37C521.69 1139.7 511.317 1120.63 510.902 1100.83C510.505 1081.81 519.269 1063.84 521.995 1045.01C525.798 1018.72 517.432 991.605 502.607 969.571C477.173 931.768 432.158 907.972 386.609 908.25C370.398 908.35 354.011 911.274 338.095 908.199C326.163 905.893 315.147 900.328 303.619 896.481C282.043 889.282 258.461 888.211 236.323 893.423C230.162 894.874 223.893 896.923 219.245 901.222C210.737 909.09 209.905 922.622 213.601 933.608C217.296 944.595 224.635 953.897 230.841 963.685C255.851 1003.13 262.768 1051.65 261.156 1098.34C260.656 1112.84 259.358 1127.48 254.626 1141.19C248.247 1159.66 236.008 1175.43 223.975 1190.83C218.785 1197.47 216.845 1205.75 218.424 1214.03C220.003 1222.31 224.785 1229.64 230.197 1236.1C251.273 1261.26 283.902 1276.31 316.712 1276.01C330.183 1275.89 343.516 1273.33 356.614 1270.17C398.466 1260.08 443.059 1242.37 476.944 1215.81Z" stroke="#001AFF" stroke-width="1.85929" stroke-miterlimit="10"/>
<path d="M279.484 1126.53C274.993 1141.42 266.306 1154.63 257.527 1167.52C253.765 1173.04 252.402 1179.77 253.703 1186.51C255.008 1193.28 258.722 1199.32 262.927 1204.7C279.352 1225.85 304.742 1239.19 331.263 1239.93C342.087 1240.2 352.946 1238.49 363.805 1236.14C396.589 1227.64 431.737 1213.95 458.46 1192.98C473.578 1181.12 489.605 1167.09 492.083 1148.05C494.111 1132.46 486.428 1117.26 485.992 1101.54C485.508 1086 491.494 1071.42 492.812 1056.23C494.682 1035.08 487.174 1013.4 475.232 995.349C455.297 965.401 421.083 945.682 385.628 944.622C373.017 944.252 360.282 946.1 347.913 943.538C338.562 941.571 329.91 937.237 320.887 934.26C303.866 928.655 285.408 927.982 268.126 932.261C263.318 933.451 258.436 935.107 254.778 938.468C248.095 944.609 247.193 955.047 249.715 963.615C252.25 972.166 257.543 979.487 262.012 987.199C280.073 1018.18 284.955 1056.32 283.987 1092.94C283.687 1104.31 282.733 1115.75 279.484 1126.53Z" stroke="#001AFF" stroke-width="1.85929" stroke-miterlimit="10"/>
<path d="M304.343 1111.87C301.756 1123.2 296.603 1133.81 291.08 1144.2C288.743 1148.6 287.959 1153.79 288.983 1159C290.015 1164.24 292.677 1168.99 295.659 1173.3C307.49 1190.41 325.58 1202.14 345.816 1203.85C353.989 1204.55 362.377 1203.66 371 1202.1C394.713 1195.2 420.418 1185.53 439.978 1170.16C451.178 1161.36 462.696 1150.77 464.808 1136.72C466.537 1125.22 461.586 1113.89 461.083 1102.25C460.561 1090.2 463.721 1079 463.633 1067.46C463.571 1051.45 456.968 1035.17 447.858 1021.13C433.498 998.985 410.009 983.394 384.648 980.993C375.636 980.154 366.545 980.961 357.732 978.877C350.957 977.276 344.674 974.145 338.155 972.037C325.69 968.026 312.354 967.752 299.931 971.098C296.477 972.027 292.982 973.293 290.314 975.715C285.456 980.129 284.468 987.476 285.83 993.622C287.187 999.739 290.43 1005.09 293.182 1010.71C304.217 1033.27 307.144 1060.99 306.816 1087.53C306.718 1095.79 306.129 1104.05 304.343 1111.87Z" stroke="#001AFF" stroke-width="1.85929" stroke-miterlimit="10"/>
<path d="M329.203 1097.21C328.576 1105.04 326.876 1112.96 324.634 1120.89C323.712 1124.15 323.518 1127.81 324.264 1131.49C325.022 1135.21 326.618 1138.67 328.391 1141.91C335.58 1155.01 346.415 1165.03 360.37 1167.77C365.889 1168.86 371.807 1168.82 378.194 1168.06C392.837 1162.76 409.098 1157.1 421.493 1147.33C428.774 1141.6 435.782 1134.46 437.529 1125.4C438.96 1117.98 436.699 1110.53 436.171 1102.96C435.571 1094.39 435.922 1086.58 434.449 1078.69C432.421 1067.82 426.718 1056.97 420.481 1046.91C411.627 1032.62 398.932 1021.1 383.666 1017.36C378.253 1016.05 372.811 1015.79 367.549 1014.22C363.352 1012.96 359.436 1011.05 355.422 1009.82C347.512 1007.4 339.3 1007.52 331.732 1009.93C329.63 1010.6 327.524 1011.48 325.846 1012.96C322.813 1015.65 321.75 1019.9 321.944 1023.63C322.135 1027.31 323.328 1030.67 324.353 1034.22C328.412 1048.31 329.332 1065.66 329.644 1082.12C329.748 1087.27 329.588 1092.38 329.203 1097.21Z" stroke="#001AFF" stroke-width="1.85929" stroke-miterlimit="10"/>
<path d="M176.153 709.976C185.563 701.872 197.409 697.147 207.38 689.745C217.35 682.343 225.79 670.491 223.398 658.302C222.735 654.917 221.252 651.583 221.676 648.159C222.404 642.283 228.368 638.55 234.023 636.801C248.021 632.471 263.104 634.99 277.729 634.105C292.354 633.221 308.708 627.053 313.442 613.181C315.51 607.122 315.177 600.025 319.173 595.024C326.491 585.865 341.63 590.943 350.021 599.128C361.947 610.762 368.783 626.632 379.516 639.375C394.591 657.271 416.459 668.026 433.269 684.304C452.428 702.857 464.438 728.623 466.327 755.232C468.217 781.842 459.968 809.047 443.622 830.122C433.174 843.593 419.746 854.425 406.035 864.552C401.143 868.165 395.976 871.803 389.99 872.869C384.708 873.81 379.297 872.65 374.086 871.371C358.334 867.501 342.863 862.479 327.841 856.359C319.317 852.886 310.767 849.013 301.613 848.058C292.076 847.063 282.54 849.301 273.14 851.189C247.372 856.366 218.662 858.476 196.663 844.088C158.753 819.291 137.984 742.851 176.153 709.976Z" stroke="#001AFF" stroke-width="1.85929" stroke-miterlimit="10"/>
<path d="M230.71 814.757C201.56 798.217 185.956 743.653 211.56 718.074C217.835 711.806 225.855 707.823 232.687 702.083C239.529 696.292 245.42 687.586 244.206 678.754C243.868 676.286 242.962 673.853 243.406 671.386C244.23 666.815 248.792 663.779 253.154 662.144C262.035 658.812 271.717 658.953 281.367 658.905C283.484 658.893 285.563 658.865 287.605 658.798C299.703 658.405 311.479 655.78 315.662 648.114C317.512 644.723 317.945 640.877 321.035 637.944C326.672 632.591 336.722 635.846 342.725 641.544C351.261 649.646 356.461 660.486 364.278 669.197C369.453 674.966 375.641 679.658 382.003 684.17C389.137 689.227 396.503 694.067 402.919 699.953C416.758 712.65 425.62 730.264 427.9 748.69C430.226 767.489 425.622 787.473 413.931 802.934C406.343 813.022 396.037 820.748 385.628 827.546C381.936 829.971 378.063 832.37 373.645 833.034C369.746 833.62 365.763 832.79 361.914 831.88C357.251 830.778 352.618 829.552 348.021 828.229C341.142 826.249 334.348 824.059 327.662 821.643C321.333 819.358 314.988 816.841 308.24 816.292C301.212 815.72 294.183 817.324 287.244 818.703C268.219 822.486 247.293 824.168 230.71 814.757Z" stroke="#001AFF" stroke-width="1.85929" stroke-miterlimit="10"/>
<path d="M264.758 785.427C244.286 777.2 233.936 744.505 246.966 726.172C250.108 721.751 254.321 718.517 257.992 714.421C261.726 710.256 265.056 704.674 265.011 699.205C264.999 697.654 264.693 696.124 265.133 694.614C266.084 691.343 269.215 689.01 272.281 687.488C278.528 684.385 285.644 683.598 292.822 683.5C294.438 683.477 295.989 683.473 297.479 683.492C307.053 683.616 314.147 684.629 317.88 683.049C319.471 682.376 320.281 681.243 322.892 680.865C326.006 678.492 331.812 680.751 335.425 683.962C340.57 688.531 344.135 694.341 349.033 699.02C352.271 702.119 356.029 704.651 359.864 707.083C364.175 709.813 368.612 712.431 372.562 715.602C381.078 722.441 386.857 731.932 389.466 742.15C392.281 753.174 391.238 765.88 384.233 775.749C379.484 782.439 372.309 787.05 365.212 790.543C362.716 791.772 360.141 792.939 357.291 793.202C354.777 793.433 352.222 792.934 349.731 792.392C346.716 791.737 343.715 791.018 340.731 790.29C336.264 789.2 331.84 788.09 327.473 786.93C323.339 785.831 319.198 784.673 314.856 784.528C310.334 784.378 305.812 785.351 301.334 786.221C289.066 788.605 275.877 789.897 264.758 785.427Z" stroke="#001AFF" stroke-width="1.85929" stroke-miterlimit="10"/>
<path d="M298.804 756.098C310.439 755.594 321.858 751.223 333.448 752.353C337.24 752.723 340.994 753.681 344.801 753.541C348.609 753.401 352.671 751.887 354.539 748.564C356.919 744.331 354.764 738.72 351.036 735.611C347.306 732.501 342.416 731.261 337.729 729.997C333.042 728.733 328.17 727.233 324.752 723.786C317.177 716.149 317.027 707.692 304.279 708.093C297.268 708.314 290.601 712.02 286.864 717.843C279.067 729.988 280.407 756.894 298.804 756.098Z" stroke="#001AFF" stroke-width="1.85929" stroke-miterlimit="10"/>
<path d="M496.64 907.818C509.853 917.238 523.839 925.572 538.411 932.713C544.121 935.511 550.142 938.178 556.5 938.221C571.406 938.324 582.267 924.685 590.699 912.387C604.971 891.575 619.242 870.761 633.514 849.949C641.044 838.968 648.803 827.395 650.284 814.16C651.811 800.504 646.546 785.845 652.285 773.361C654.716 768.075 658.905 763.798 661.741 758.718C671.541 741.159 663.16 719.119 652.518 702.059C648.117 695.003 642.057 687.455 633.744 687.3C624.748 687.132 618.136 695.821 615 704.258C611.864 712.695 610.364 722.141 604.389 728.871C593.081 741.61 572.918 738.212 556.082 740.775C534.36 744.084 515.769 758.971 503.083 776.918C489.923 795.532 474.599 822.022 466.885 843.632C457.526 869.859 476.469 893.439 496.64 907.818Z" stroke="#001AFF" stroke-width="1.85929" stroke-miterlimit="10"/>
<path d="M525.932 882.471C533.698 886.897 541.493 891.256 549.636 894.412C552.826 895.65 556.158 896.873 559.611 896.548C568.329 895.731 574.097 886.916 578.745 879.163C586.59 866.121 594.796 853.176 603.322 840.42C607.819 833.69 612.591 826.732 614.164 818.978C615.729 811.258 613.817 803.035 617.188 795.742C618.622 792.638 620.873 790.013 622.386 786.977C627.614 776.483 623.036 763.604 616.778 753.583C613.887 748.959 610.023 744.387 604.941 743.714C599.35 742.974 594.809 746.944 591.984 751.103C589.171 755.243 587.152 760.15 582.919 763.907C574.994 770.942 562.737 770.554 552.627 773.514C545.71 775.539 539.494 779.375 534.281 784.187C529.581 788.522 525.42 793.905 522.04 799.774C514.697 812.485 506.807 829.735 503.676 843.811C499.951 860.539 511.856 874.449 525.932 882.471Z" stroke="#001AFF" stroke-width="1.85929" stroke-miterlimit="10"/>
<path d="M555.225 857.125C557.898 857.259 560.727 856.662 562.722 854.877C565.201 852.662 565.928 849.15 566.79 845.938C568.954 837.883 572.812 830.288 578.043 823.793C579.504 821.979 581.087 820.222 582.088 818.118C584.04 814.017 583.451 808.947 581.034 805.103C571.653 790.183 548.969 801.126 543.62 814.1C538.177 827.297 534.985 856.107 555.225 857.125Z" stroke="#001AFF" stroke-width="1.85929" stroke-miterlimit="10"/>
<path d="M578.208 1184.89C598.79 1168.58 597.996 1137.43 593.347 1111.57C588.695 1085.72 582.685 1056.73 597.469 1035.02C608.859 1018.3 629.824 1010.69 643.096 995.414C657.048 979.359 660.831 956.952 671.524 938.563C688.829 908.805 724.888 887.354 725.752 852.938C725.999 843.124 723.135 833.375 723.901 823.586C725.123 807.987 735.221 794.71 740.992 780.168C753.865 747.736 744.501 710.547 728.986 679.292C713.471 648.037 692.022 619.805 678.882 587.479C665.741 555.153 662.189 515.863 681.943 487.102C713.942 440.518 786.255 445.126 829.307 408.526" stroke="#001AFF" stroke-width="1.85929" stroke-miterlimit="10"/>
<path d="M792.169 736.337C769.59 703.067 748.699 668.651 729.598 633.269C718.559 612.817 707.971 591.607 704.344 568.647C700.717 545.688 704.997 520.406 720.688 503.263C732.98 489.832 750.605 482.855 767.589 476.305C776.31 472.942 785.029 469.578 793.751 466.215" stroke="#001AFF" stroke-width="1.85929" stroke-miterlimit="10"/>
<path d="M793.833 671.943C783.329 657.452 772.827 642.961 762.326 628.468C754.273 617.357 746.139 606.101 741.033 593.362C735.926 580.623 734.082 566.042 738.869 553.18C746.723 532.082 769.413 521.111 790.075 512.192" stroke="#001AFF" stroke-width="1.85929" stroke-miterlimit="10"/>
<path d="M622.756 1189.11C631.975 1168.73 627.081 1145.11 622.769 1123.16C618.455 1101.21 615.302 1076.81 627.19 1057.86C631.331 1051.26 637.042 1045.83 642.407 1040.17C653.487 1028.5 663.269 1015.66 673.027 1002.86C679.14 994.837 685.306 986.727 689.455 977.532C692.002 971.889 693.754 965.908 696.377 960.301C707.463 936.598 732.935 921.7 742.664 897.408C752.03 874.026 745.252 845.499 758.602 824.143C767.894 809.28 785.071 801.289 801.982 796.698" stroke="#001AFF" stroke-width="1.85929" stroke-miterlimit="10"/>
<path d="M645.962 1191.43C653.516 1173.63 649.426 1153.12 645.875 1134.01C643.706 1122.33 641.919 1109.89 643.134 1098.2C643.908 1090.75 645.903 1083.6 649.807 1077.14C653.3 1071.35 658.108 1066.54 662.635 1061.55C671.989 1051.23 680.298 1039.96 688.644 1028.75C693.877 1021.72 699.179 1014.63 702.829 1006.65C705.07 1001.75 706.658 996.582 708.986 991.733C712.456 984.5 717.448 978.201 722.859 972.175C732.773 961.132 744.069 951.028 749.864 937.632C752.719 931.032 754.096 923.96 755.082 916.771C757.073 902.248 757.469 887.248 765.3 874.862C773.448 861.977 788.091 854.756 802.414 850.329" stroke="#001AFF" stroke-width="1.85929" stroke-miterlimit="10"/>
<path d="M669.166 1193.75C675.058 1178.54 671.771 1161.14 668.98 1144.86C667.275 1134.91 665.901 1124.35 666.939 1114.39C667.598 1108.06 669.243 1101.96 672.42 1096.41C675.266 1091.44 679.169 1087.25 682.86 1082.92C690.486 1073.97 697.322 1064.26 704.257 1054.64C708.61 1048.6 713.047 1042.52 716.197 1035.76C718.13 1031.61 719.556 1027.25 721.587 1023.16C724.616 1017.06 728.893 1011.73 733.544 1006.65C742.057 997.348 751.763 988.928 757.054 977.851C759.662 972.396 761.085 966.555 762.181 960.599C764.391 948.569 765.258 936.062 771.988 925.577C778.992 914.67 791.101 908.218 802.837 903.955" stroke="#001AFF" stroke-width="1.85929" stroke-miterlimit="10"/>
<path d="M692.371 1196.06C696.599 1183.44 694.114 1169.16 692.085 1155.72C690.846 1147.49 689.886 1138.81 690.745 1130.58C691.291 1125.37 692.581 1120.32 695.036 1115.68C697.233 1111.53 700.234 1107.97 703.087 1104.3C708.986 1096.7 714.349 1088.56 719.872 1080.53C723.345 1075.48 726.916 1070.42 729.566 1064.88C731.193 1061.47 732.456 1057.93 734.192 1054.59C736.778 1049.62 740.341 1045.26 744.232 1041.13C751.342 1033.56 759.458 1026.83 764.248 1018.07C766.61 1013.76 768.079 1009.15 769.283 1004.43C771.709 994.89 773.05 984.877 778.681 976.295C784.542 967.363 794.114 961.681 803.264 957.585" stroke="#001AFF" stroke-width="1.85929" stroke-miterlimit="10"/>
<path d="M715.575 1198.38C718.141 1188.34 716.458 1177.17 715.188 1166.57C714.414 1160.07 713.869 1153.27 714.549 1146.78C714.98 1142.68 715.918 1138.68 717.648 1134.95C719.197 1131.62 721.294 1128.68 723.311 1125.68C727.482 1119.44 731.371 1112.86 735.485 1106.43C738.077 1102.36 740.782 1098.31 742.933 1093.99C744.254 1091.34 745.354 1088.6 746.795 1086.02C748.939 1082.19 751.789 1078.8 754.919 1075.61C760.627 1069.79 767.152 1064.73 771.44 1058.3C773.555 1055.13 775.07 1051.75 776.383 1048.26C779.028 1041.22 780.84 1033.7 785.371 1027.02C790.088 1020.06 797.126 1015.15 803.688 1011.22" stroke="#001AFF" stroke-width="1.85929" stroke-miterlimit="10"/>
<path d="M29.1982 650.286C37.756 656.231 48.5952 658.447 56.6558 665.049C66.7024 673.28 70.6744 686.784 78.9821 696.768C80.6216 698.737 82.4941 700.614 84.8516 701.615C90.6464 704.078 97.3908 700.465 101.386 695.597C110.99 683.898 110.834 665.562 122.489 655.908C127.521 651.738 134.082 649.862 139.395 646.058C157.479 633.104 154.138 605.276 164.524 585.6C170.076 575.081 179.924 566.914 191.285 563.404C209.37 557.816 232.502 562.519 244.555 547.919C247.91 543.855 249.807 538.782 251.14 533.683C255.498 517.025 254.295 498.961 247.768 483.027C243.61 472.875 237.426 463.704 231.42 454.524C219.771 436.72 208.384 417.926 205.21 396.883C200.98 368.831 211.608 338.471 199.891 312.634C189.016 288.652 158.239 275.926 133.613 285.226C116.833 291.562 103.89 306.237 86.5843 310.955C69.6301 315.579 51.5354 309.758 35.9876 301.568C20.4383 293.378 6.08552 282.743 -10.3931 276.638C-13.2385 275.584 -16.4428 274.677 -19.2385 275.86C-20.9214 276.572 -22.2175 277.956 -23.4343 279.321C-51.6906 310.983 -66.8732 353.116 -69.6238 395.472C-72.3759 437.827 -63.2509 480.395 -47.4296 519.778C-41.7482 533.923 -35.0022 547.254 -23.3131 557.308C-13.8647 565.436 -6.85775 573.032 -1.90981 584.811C7.19197 606.484 8.22693 635.717 29.1982 650.286Z" stroke="#001AFF" stroke-width="1.85929" stroke-miterlimit="10"/>
<path d="M-25.756 506.452C-21.2976 517.549 -16.0622 528.08 -7.12666 536.178C0.0839018 542.682 5.45919 548.799 9.29446 558.057C16.376 575.185 17.4219 598.003 33.4887 609.759C40.0543 614.582 48.3465 616.595 54.5718 621.881C62.3418 628.488 65.585 639.021 72.1227 646.869C73.4125 648.418 74.8764 649.901 76.7116 650.712C81.1374 652.668 86.2983 650.028 89.3938 646.459C96.8375 637.88 96.9945 624.289 106.025 617.158C109.924 614.08 114.971 612.71 119.083 609.884C133.081 600.263 131.026 579.365 139.22 564.414C143.914 555.946 151.394 549.021 159.818 545.586C164.04 543.869 168.592 542.918 173.123 542.063C182.993 540.225 192.803 538.684 198.999 530.376C201.517 526.986 202.991 522.846 204.121 518.696C207.664 505.511 207.314 491.494 203.046 479.128C200.311 471.259 196.084 464.146 191.973 457.009C186.73 447.894 181.543 438.426 178.012 428.253C176.18 422.969 174.781 417.497 174.059 411.811C171.241 389.635 178.814 365.532 169.158 345.363C160.311 326.881 136.469 317.076 117.224 323.756C104.109 328.307 93.9362 339.291 80.4879 342.246C67.0069 345.209 52.9075 339.76 40.7117 332.973C28.4475 326.099 16.9774 317.805 3.37994 313.503C1.0909 312.779 -1.46077 312.137 -3.72029 313.093C-5.07227 313.665 -6.13521 314.744 -7.1422 315.812C-29.7063 339.883 -42.3356 372.209 -44.5672 405.291C-44.6216 406.09 -44.6713 406.891 -44.7148 407.691C-46.5283 441.358 -38.3263 475.172 -25.756 506.452Z" stroke="#001AFF" stroke-width="1.85929" stroke-miterlimit="10"/>
<path d="M-4.08545 493.123C-0.85002 501.173 2.85627 508.925 9.05673 515.045C14.014 519.94 17.7747 524.563 20.4957 531.3C25.5587 543.888 26.634 560.263 37.7778 569.232C42.3621 572.921 48.0963 574.743 52.4864 578.712C57.9798 583.698 60.4957 591.26 65.2634 596.97C66.2035 598.097 67.2587 599.187 68.5718 599.809C71.6285 601.256 75.2043 599.591 77.4016 597.32C82.6853 591.862 83.1546 583.014 89.5586 578.407C92.3232 576.419 95.8585 575.556 98.7707 573.709C108.685 567.422 107.913 553.455 113.918 543.228C117.754 536.811 122.864 531.128 128.351 527.767C131.102 526.093 134.008 524.919 136.884 523.864C143.142 521.566 149.327 519.456 153.442 512.835C155.128 510.123 156.186 506.913 157.1 503.71C159.868 494.009 160.359 484.024 158.322 475.23C157.027 469.64 154.741 464.59 152.525 459.493C149.706 452.98 146.884 446.192 144.996 438.781C144.017 434.93 143.266 430.915 142.906 426.739C141.503 410.44 146.028 392.594 138.423 378.09C131.614 365.109 114.698 358.226 100.836 362.285C91.383 365.05 83.9455 372.312 74.39 373.537C64.3356 374.825 54.2579 369.791 45.4359 364.375C36.4367 358.851 27.8943 352.847 17.1515 350.366C15.425 349.968 13.5214 349.592 11.7949 350.322C10.7755 350.753 9.94096 351.524 9.14686 352.298C-8.46151 369.463 -18.5299 393.293 -19.7296 418.123C-19.7591 418.717 -19.7855 419.311 -19.8057 419.905C-20.6837 444.885 -13.4032 469.946 -4.08545 493.123Z" stroke="#001AFF" stroke-width="1.85929" stroke-miterlimit="10"/>
<path d="M17.5867 479.794C19.6007 484.797 21.7872 489.751 25.2417 493.913C27.9566 497.184 30.0902 500.328 31.6986 504.542C34.7429 512.589 35.8369 522.545 42.0685 528.705C44.6636 531.272 47.8478 532.892 50.4026 535.544C53.6178 538.908 55.408 543.499 58.4041 547.072C58.9946 547.776 59.6395 548.471 60.4305 548.905C62.1213 549.834 64.1104 549.154 65.408 548.18C68.5315 545.842 69.3132 541.739 73.091 539.656C74.7227 538.757 76.7429 538.403 78.4554 537.536C84.2844 534.582 84.7972 527.545 88.6108 522.042C91.5898 517.675 94.3217 513.227 96.8811 509.948C98.157 508.314 99.4173 506.93 100.642 505.662C103.284 502.926 105.834 500.213 107.882 495.291C108.73 493.252 109.368 490.976 110.076 488.722C112.033 482.497 113.383 476.563 113.594 471.33C113.728 468.028 113.394 465.031 113.074 461.976C112.678 458.066 112.222 453.957 111.977 449.31C111.852 446.891 111.748 444.335 111.75 441.667C111.759 431.246 113.271 419.65 107.685 410.818C102.948 403.329 92.9231 399.375 84.4445 400.813C78.6558 401.79 73.8711 405.207 68.2907 404.825C61.5618 404.363 55.6224 399.792 50.157 395.776C44.4367 391.573 38.8548 387.823 30.9201 387.229C29.7623 387.142 28.4989 387.048 27.307 387.552C26.6186 387.843 26.0172 388.308 25.4329 388.787C12.8439 399.099 5.31325 414.379 5.10501 430.958C5.10035 431.346 5.09724 431.733 5.09879 432.12C5.16251 448.413 11.5199 464.721 17.5867 479.794Z" stroke="#001AFF" stroke-width="1.85929" stroke-miterlimit="10"/>
<path d="M52.2891 498.003C55.0832 500.946 59.6489 502.618 63.3054 500.859C66.474 497.399 65.739 491.964 64.3979 487.466C63.0568 482.968 61.3116 478.099 63.0521 473.74C65.7032 467.104 74.704 465.582 78.9573 459.841C82.5502 454.991 81.61 447.379 76.9449 443.55C72.6636 440.035 66.3404 439.786 62.1881 436.118C54.6232 429.436 54.1834 419.378 41.7173 425.279C34.213 428.832 29.0739 435.47 29.9379 443.798C30.746 451.583 36.3746 459.331 39.2573 466.465C43.1733 476.156 44.9045 490.224 52.2891 498.003Z" stroke="#001AFF" stroke-width="1.85929" stroke-miterlimit="10"/>
<path d="M138.69 -10.7474C131.346 5.44604 125.111 22.1432 120.043 39.1885C117.361 48.2087 116.707 60.8824 125.566 64.0446C128.811 65.2028 132.427 64.5359 135.796 65.251C144.629 67.1275 148.727 77.3836 149.838 86.3478C150.107 88.5088 150.322 90.7786 151.52 92.5975C153.608 95.7675 157.871 96.5014 161.65 96.8465C175.605 98.1213 190.421 98.2426 202.321 105.644C220.315 116.836 225.442 140.617 225.973 161.805C226.547 184.635 223.714 207.548 217.599 229.551C213.217 245.316 207.102 261.647 210.811 277.584C212.792 286.098 217.459 293.731 220.217 302.025C224.572 315.119 224.008 329.246 224.856 343.017C227.408 384.441 243.546 424.917 270.196 456.724C279.081 467.33 289.437 477.216 302.251 482.429C317.462 488.616 334.839 487.596 350.564 482.867C366.287 478.136 380.705 469.934 394.969 461.797C405.045 456.049 416.464 448.064 416.195 436.463C416.09 431.891 414.07 427.238 415.448 422.879C417.519 416.334 425.645 414.355 430.913 409.958C439.449 402.833 439.692 389.314 435.024 379.221C430.355 369.128 421.945 361.37 414.643 352.984C375.787 308.364 367.781 245.023 367.296 185.848C367.174 171.043 367.454 155.98 371.937 141.87C374.677 133.246 378.938 125.155 381.51 116.48C385.941 101.534 385.164 85.628 385.826 70.0518C387.288 35.6502 396.06 1.57803 411.389 -29.2495" stroke="#001AFF" stroke-width="1.85929" stroke-miterlimit="10"/>
<path d="M161.425 -5.72111C154.999 1.73197 148.384 9.53167 145.833 19.0385C143.283 28.5452 146.105 40.2644 154.814 44.8429C156.589 45.7757 158.601 46.4333 159.919 47.9444C161.894 50.2096 161.672 53.5598 161.86 56.5603C162.503 66.846 169.877 76.3855 179.664 79.599C191.962 83.6365 206.643 78.3739 217.687 85.1258C224.502 89.2923 228.133 97.0672 230.91 104.559C240.755 131.118 244.606 159.88 242.091 188.096C239.708 214.849 231.712 241.731 236.666 268.127C238.48 277.791 241.993 287.055 244.164 296.644C246.868 308.583 247.467 320.886 249.173 333.008C252.346 355.549 259.406 377.538 269.947 397.713C279.519 416.035 292.533 433.371 310.69 443.242C328.847 453.112 352.885 454.025 369.263 441.418C371.914 439.378 374.421 436.875 375.369 433.668C376.646 429.343 374.851 424.648 375.644 420.208C377.532 409.624 392.551 405.411 394.411 394.822C395.263 389.974 393.021 385.173 390.792 380.786C374.531 348.774 355.448 317.433 348.133 282.279C344.589 265.248 343.92 247.767 343.261 230.385C342.108 199.913 341.011 168.908 348.831 139.437C351.473 129.482 355.112 119.792 357.244 109.716C361.735 88.4855 359.366 66.4341 361.446 44.8336C363.369 24.8794 369.14 5.30306 378.349 -12.4994" stroke="#001AFF" stroke-width="1.85929" stroke-miterlimit="10"/>
<path d="M296.867 379.393C300.222 385.578 304.009 391.857 309.882 395.73C315.754 399.602 324.278 400.33 329.467 395.581C332.247 393.034 333.899 389.164 337.305 387.551C340.011 386.27 343.244 386.724 346.057 385.699C350.53 384.071 352.951 378.955 352.909 374.195C352.867 369.434 350.882 364.93 348.898 360.604C336.91 334.454 323.456 308.344 319.369 279.868C315.841 255.289 319.495 230.057 315.487 205.552C314.018 196.571 310.07 186.266 301.209 184.213C277.165 178.639 259.6 215.392 260.718 234.559C262.506 265.25 265.748 296.219 274.6 325.754C280.168 344.329 287.621 362.345 296.867 379.393Z" stroke="#001AFF" stroke-width="1.85929" stroke-miterlimit="10"/>
<path d="M187.251 -13.0809C188.234 -6.19216 184.202 0.267475 181 6.44572C177.799 12.624 175.394 20.447 179.266 26.2288C181.77 29.9662 186.332 31.8459 189.1 35.3936C191.335 38.2573 192.269 42.0476 194.844 44.6081C198.29 48.0346 203.625 48.3502 208.411 49.1835C219.93 51.189 230.652 57.4715 238.037 66.5383C245.922 76.2207 249.802 88.4559 253.746 100.306C257.692 112.155 262.098 124.311 270.711 133.35C279.325 142.389 293.303 147.502 304.635 142.263C315.84 137.083 320.901 124.007 323.261 111.886C327.389 90.7009 326.542 68.8656 329.23 47.4501C331.919 26.0345 338.896 3.89764 355.143 -10.3042" stroke="#001AFF" stroke-width="1.85929" stroke-miterlimit="10"/>
<path d="M227.289 -10.1985C222.845 -7.52603 220.593 -1.86237 221.502 3.24627C222.411 8.3549 226.195 12.7312 230.923 14.8642C233.788 16.1577 236.943 16.691 239.833 17.9285C250.345 22.4277 254.756 34.5883 259.132 45.1554C262.728 53.8366 267.014 62.2334 271.937 70.2368C275.796 76.5114 281.196 83.1966 288.559 83.279C293.843 83.338 298.654 79.7125 301.305 75.1387C303.956 70.5649 304.784 65.1717 305.156 59.8998C306.06 47.0754 304.565 34.069 306.806 21.4109C309.027 8.86322 314.978 -3.00044 323.706 -12.2818" stroke="#001AFF" stroke-width="1.85929" stroke-miterlimit="10"/>
<path d="M260.011 -5.82354C262.27 1.34036 264.531 8.50423 266.792 15.6681C267.585 18.1836 268.412 20.7597 270.053 22.8243C272.628 26.0642 276.931 27.5769 281.069 27.5753C283.652 27.5753 286.368 26.9768 288.253 25.2107C292.241 21.4717 290.682 14.995 289.602 9.63602C287.527 -0.654323 289.321 -13.0326 298.144 -18.7149" stroke="#001AFF" stroke-width="1.85929" stroke-miterlimit="10"/>
<path d="M297.356 325.37C298.216 327.27 299.193 329.247 300.932 330.398C302.671 331.548 305.395 331.467 306.491 329.692C307.292 328.391 306.977 326.719 306.634 325.23C302.45 307.067 297.948 288.764 297.126 270.067C296.867 264.177 301.642 241.689 292.761 247.438C286.049 251.783 284.296 269.02 284.461 275.983C284.856 292.61 290.565 310.35 297.356 325.37Z" stroke="#001AFF" stroke-width="1.85929" stroke-miterlimit="10"/>
<path d="M415.71 570.062C434.655 591.428 462.694 603.506 480.219 626.05C489.426 637.895 496.963 653.422 511.553 656.898C519.462 658.782 527.749 656.5 535.319 653.534C540.922 651.337 546.42 648.731 551.219 645.095C572.967 628.617 576.155 594.895 598.57 579.336C606.378 573.916 616.079 571.102 622.58 564.167C628.963 557.357 631.2 547.614 631.608 538.289C632.015 528.964 630.852 519.604 631.598 510.301C633.458 487.097 647.043 464.292 641.022 441.807C637.359 428.13 626.925 417.318 615.785 408.587C605.777 400.743 594.4 393.869 581.765 392.474C557.687 389.817 535.387 407.329 511.163 407.284C504.046 407.271 497.006 405.728 489.891 405.56C482.775 405.392 475.166 406.847 470.071 411.82C465.438 416.341 463.274 423.367 457.622 426.52C456.029 427.407 454.239 427.93 452.736 428.962C445.768 433.752 449.33 444.426 448.784 452.867C446.907 481.934 407.972 479.815 395.387 499.948C382.885 519.951 402.553 555.223 415.71 570.062Z" stroke="#001AFF" stroke-width="1.85929" stroke-miterlimit="10"/>
<path d="M448.907 556.721C453.678 561.888 459.182 566.154 464.89 570.244C475.176 577.604 485.987 584.539 493.878 594.449C500.306 602.534 505.605 613.128 515.603 615.698C521.017 617.088 526.686 615.701 531.875 613.857C535.718 612.492 539.491 610.852 542.798 608.521C557.83 597.992 560.161 575.304 576.129 565.41C580.352 562.792 585.038 560.415 588.679 557.376C590.592 555.787 592.281 554.057 593.661 552.009C594.961 550.081 595.912 547.948 596.613 545.691C598.026 541.105 598.402 535.951 598.601 530.883C598.881 524.196 598.214 517.502 598.854 510.853C599.973 499.261 605.022 487.815 606.548 476.438C607.204 471.541 607.205 466.656 605.981 461.793C603.508 451.96 596.357 444.042 588.582 437.595C581.557 431.729 573.585 426.765 564.758 425.652C547.774 423.455 531.903 435.826 514.93 436.664C509.983 436.908 505.097 436.11 500.178 436.258C495.255 436.41 490.02 437.653 486.481 441.236C483.249 444.521 481.683 449.471 477.816 451.825C476.727 452.487 475.504 452.901 474.481 453.663C469.684 457.234 471.908 464.792 471.404 470.866C469.698 491.429 443.364 491.348 434.777 506.066C427.572 518.525 435.77 538.173 444.191 550.655C445.765 552.981 447.367 555.055 448.907 556.721Z" stroke="#001AFF" stroke-width="1.85929" stroke-miterlimit="10"/>
<path d="M482.103 543.382C484.857 546.094 487.959 548.166 491.179 550.186C497.006 553.817 503.02 557.521 507.536 562.848C511.183 567.175 514.246 572.836 519.653 574.499C522.574 575.393 525.622 574.905 528.43 574.18C530.512 573.647 532.554 572.963 534.377 571.948C542.669 567.323 544.459 556.059 553.688 551.484C557.067 549.809 560.448 547.474 562.428 544.608C563.46 543.113 564.221 541.556 564.742 539.849C565.235 538.246 565.482 536.55 565.592 534.807C565.817 531.245 565.46 527.368 565.595 523.473C565.737 519.423 565.575 515.397 566.113 511.401C567.051 504.429 570.127 497.557 571.117 490.653C571.539 487.693 571.575 484.728 570.941 481.776C569.657 475.786 565.771 470.784 561.381 466.601C557.32 462.731 552.765 459.684 547.751 458.827C537.852 457.137 528.433 464.303 518.697 466.041C515.925 466.537 513.188 466.49 510.464 466.953C507.734 467.425 504.866 468.449 502.888 470.647C501.05 472.69 500.088 475.573 498.007 477.124C497.421 477.563 496.767 477.869 496.225 478.355C493.598 480.714 494.489 485.151 494.021 488.857C492.503 500.912 478.705 502.848 474.163 512.174C470.236 520.237 474.399 531.89 479.246 539.675C480.142 541.103 481.101 542.395 482.103 543.382Z" stroke="#001AFF" stroke-width="1.85929" stroke-miterlimit="10"/>
<path d="M514.306 528.702C514.522 529.227 514.801 529.773 515.302 530.043C515.948 530.395 516.736 530.18 517.47 530.129C522.856 529.748 525.883 538.157 531.25 537.56C533.953 537.26 535.875 534.544 536.181 531.842C536.486 529.14 535.552 526.465 534.574 523.927C533.597 521.39 532.543 518.789 532.595 516.07C532.668 512.183 534.977 508.695 535.689 504.872C536.273 501.736 535.731 498.401 534.183 495.612C528.644 485.631 520.203 496.643 517.975 503.059C515.409 510.448 511.201 521.166 514.306 528.702Z" stroke="#001AFF" stroke-width="1.85929" stroke-miterlimit="10"/>
<path d="M798.773 390.929C772.128 407.404 743.634 420.881 713.999 431.025C705.764 433.844 696.642 436.392 688.551 433.185C675.533 428.026 672.077 411.398 662.835 400.874C652.633 389.256 635.488 385.435 625.794 373.389C618.284 364.056 616.557 351.251 617.486 339.305C618.416 327.36 621.685 315.709 622.997 303.801C625.082 284.868 622.186 265.724 623.182 246.702C624.178 227.683 630.054 207.433 645.301 196.027C652.902 190.341 662.161 187.361 670.316 182.504C688.874 171.452 700.635 150.899 703.963 129.552C707.294 108.205 702.879 86.1955 694.628 66.2289C688.918 52.4079 681.351 39.229 677.904 24.6774C674.459 10.1257 675.931 -6.74867 686.361 -17.4603C689.681 -20.8697 693.118 -28.3958 696.656 -31.5766C713.074 -46.3397 734.189 -55.1283 755.796 -59.6509C777.402 -64.1749 799.637 -64.6662 821.711 -64.5122" stroke="#001AFF" stroke-width="1.85929" stroke-miterlimit="10"/>
<path d="M796.69 350.137C776.164 363.127 754.063 373.717 731.043 381.571C724.647 383.754 717.579 385.713 711.283 383.339C701.152 379.518 698.244 366.992 690.891 359.085C682.622 350.195 669.063 347.044 661.303 337.528C655.287 330.154 653.699 320.09 654.24 310.627C654.456 306.84 654.975 303.079 655.595 299.325C656.523 293.702 657.668 288.102 658.314 282.435C660.027 267.414 658.201 252.249 659.063 237.149C659.907 222.187 664.248 206.307 675.553 197.063C681.189 192.455 688.053 189.878 694.086 185.893C703.637 179.586 710.712 169.832 714.947 158.825C716.799 154.005 718.111 148.939 718.849 143.815C721.279 126.996 718.039 109.654 712.14 93.9673C708.067 83.0877 702.557 72.7834 700.602 61.5183C698.621 50.107 700.781 37.3167 709.6 29.3164C712.445 26.7357 715.438 21.142 718.425 18.6996C731.853 7.72369 748.537 0.749479 765.654 -3.02214C782.773 -6.79376 800.299 -7.69089 817.593 -8.23346" stroke="#001AFF" stroke-width="1.85929" stroke-miterlimit="10"/>
<path d="M794.608 309.346C780.2 318.85 764.492 326.553 748.088 332.116C743.53 333.661 738.517 335.035 734.016 333.492C726.775 331.009 724.399 322.587 718.947 317.295C712.601 311.132 702.641 308.654 696.81 301.668C692.291 296.253 690.84 288.932 690.991 281.953C691.051 279.159 691.343 276.373 691.735 273.584C692.322 269.411 693.123 265.262 693.629 261.071C694.969 249.961 694.214 238.777 694.943 227.596C695.633 216.693 698.437 205.183 705.802 198.099C709.474 194.57 713.943 192.395 717.855 189.281C724.046 184.356 728.576 177.131 731.266 169.072C732.441 165.538 733.269 161.829 733.735 158.077C735.266 145.787 733.2 133.111 729.654 121.706C727.218 113.768 723.785 106.305 723.3 98.3608C722.793 90.0496 725.653 81.3885 732.837 76.0933C735.214 74.3412 737.744 70.6769 740.192 68.9761C750.576 61.7609 762.882 56.6273 775.511 53.6082C788.141 50.589 800.961 49.2847 813.474 48.0472" stroke="#001AFF" stroke-width="1.85929" stroke-miterlimit="10"/>
<path d="M792.526 268.553C784.237 274.571 774.922 279.388 765.13 282.66C762.411 283.57 759.454 284.356 756.747 283.643C752.394 282.497 750.513 278.2 747.001 275.503C742.538 272.076 736.217 270.26 732.318 265.805C729.294 262.349 727.98 257.772 727.743 253.274C727.648 251.474 727.712 249.663 727.876 247.84C728.123 245.12 728.58 242.419 728.945 239.703C729.914 232.504 730.228 225.301 730.821 218.039C731.357 211.194 732.627 204.055 736.05 199.131C737.758 196.681 739.833 194.907 741.621 192.665C744.454 189.121 746.439 184.429 747.581 179.315C748.078 177.066 748.425 174.714 748.616 172.335C749.248 164.576 748.329 156.568 747.161 149.441C746.344 144.446 745.101 139.751 745.993 135.199C747.031 129.896 750.563 125.485 756.069 122.867C757.993 121.953 760.025 120.195 761.956 119.249C769.186 115.705 777.225 112.502 785.365 110.235C793.506 107.969 801.618 106.259 809.351 104.325" stroke="#001AFF" stroke-width="1.85929" stroke-miterlimit="10"/>
<path d="M790.444 227.762C786.699 232.129 780.725 234.704 775.059 233.713C769.393 232.723 764.439 227.838 764.018 222.1C763.678 217.465 766.069 213.087 766.702 208.486C767.575 202.132 765.076 195.866 763.901 189.562C762.727 183.257 763.403 175.668 768.691 172.041C772.944 169.123 778.576 169.827 783.723 169.526C791.618 169.064 799.326 165.866 805.233 160.603" stroke="#001AFF" stroke-width="1.85929" stroke-miterlimit="10"/>
</g>
</g>
<defs>
<clipPath id="clip0_497_1152">
<rect width="1166" height="777" fill="white" transform="matrix(0 -1 1 0 0 1166)"/>
</clipPath>
</defs>
</svg>
